<svg width="28" height="30" viewBox="0 0 28 30" fill="none" xmlns="http://www.w3.org/2000/svg">
<g id="bag-frame">
<path id="bag (Stroke)" d="M14 1.875C16.5888 1.875 18.6875 3.97367 18.6875 6.5625V7.5H9.3125V6.5625C9.3125 3.97367 11.4112 1.875 14 1.875ZM20.5625 7.5V6.5625C20.5625 2.93813 17.6244 0 14 0C10.3756 0 7.4375 2.93813 7.4375 6.5625V7.5H0.875V26.25C0.875 28.3211 2.55393 30 4.625 30H23.375C25.4461 30 27.125 28.3211 27.125 26.25V7.5H20.5625ZM2.75 9.375H25.25V26.25C25.25 27.2855 24.4105 28.125 23.375 28.125H4.625C3.58947 28.125 2.75 27.2855 2.75 26.25V9.375Z" fill="#FAFAFA"/>
</g>
</svg>
