<svg width="30" height="30" viewBox="0 0 30 30" fill="none" xmlns="http://www.w3.org/2000/svg">
<path d="M0 4.6875C0 4.16973 0.419733 3.75 0.9375 3.75H3.75C4.18019 3.75 4.55517 4.04278 4.65951 4.46012L5.41948 7.5H27.1875C27.4762 7.5 27.7488 7.633 27.9264 7.86055C28.1041 8.0881 28.167 8.38481 28.097 8.66488L25.2845 19.9149C25.1802 20.3322 24.8052 20.625 24.375 20.625H7.5C7.06981 20.625 6.69483 20.3322 6.59049 19.9149L3.01802 5.625H0.9375C0.419733 5.625 0 5.20527 0 4.6875ZM5.88823 9.375L8.23198 18.75H23.643L25.9868 9.375H5.88823ZM9.375 24.375C8.33947 24.375 7.5 25.2145 7.5 26.25C7.5 27.2855 8.33947 28.125 9.375 28.125C10.4105 28.125 11.25 27.2855 11.25 26.25C11.25 25.2145 10.4105 24.375 9.375 24.375ZM5.625 26.25C5.625 24.1789 7.30393 22.5 9.375 22.5C11.4461 22.5 13.125 24.1789 13.125 26.25C13.125 28.3211 11.4461 30 9.375 30C7.30393 30 5.625 28.3211 5.625 26.25ZM22.5 24.375C21.4645 24.375 20.625 25.2145 20.625 26.25C20.625 27.2855 21.4645 28.125 22.5 28.125C23.5355 28.125 24.375 27.2855 24.375 26.25C24.375 25.2145 23.5355 24.375 22.5 24.375ZM18.75 26.25C18.75 24.1789 20.4289 22.5 22.5 22.5C24.5711 22.5 26.25 24.1789 26.25 26.25C26.25 28.3211 24.5711 30 22.5 30C20.4289 30 18.75 28.3211 18.75 26.25Z" fill="#FAFAFA"/>
</svg>
