<svg width="20" height="20" viewBox="0 0 20 20" fill="none" xmlns="http://www.w3.org/2000/svg">
<path d="M12.2861 5.81232C11.8751 5.46244 11.8195 4.83845 12.162 4.41859C12.5046 3.99874 13.1154 3.94201 13.5264 4.29189L19.3333 9.23495C19.3504 9.24934 19.3671 9.26432 19.3832 9.27986C19.4029 9.29884 19.4218 9.31859 19.4397 9.33904C19.5938 9.51426 19.6875 9.74595 19.6875 10C19.6875 10.2541 19.5938 10.4857 19.4397 10.661C19.4218 10.6814 19.4029 10.7012 19.3832 10.7201C19.3671 10.7357 19.3504 10.7507 19.3333 10.765L13.5264 15.7081C13.1154 16.058 12.5046 16.0013 12.162 15.5814C11.8195 15.1616 11.8751 14.5376 12.2861 14.1877L16.043 10.9896H1.28125C0.746225 10.9896 0.3125 10.5465 0.3125 10C0.3125 9.45347 0.746225 9.01042 1.28125 9.01042H16.043L12.2861 5.81232Z" fill="#212121"/>
</svg>
