<svg width="30" height="30" viewBox="0 0 30 30" fill="none" xmlns="http://www.w3.org/2000/svg">
<path d="M16.4531 1.92188C16.4531 1.11934 15.8025 0.46875 15 0.46875C14.1975 0.46875 13.5469 1.11934 13.5469 1.92188V13.5469H1.92188C1.11934 13.5469 0.46875 14.1975 0.46875 15C0.46875 15.8025 1.11934 16.4531 1.92188 16.4531H13.5469V28.0781C13.5469 28.8807 14.1975 29.5312 15 29.5312C15.8025 29.5312 16.4531 28.8807 16.4531 28.0781V16.4531H28.0781C28.8807 16.4531 29.5312 15.8025 29.5312 15C29.5312 14.1975 28.8807 13.5469 28.0781 13.5469H16.4531V1.92188Z" fill="#5B016A"/>
</svg>
