<svg width="20" height="20" viewBox="0 0 20 20" fill="none" xmlns="http://www.w3.org/2000/svg">
<path d="M3.65234 0.3125C2.84333 0.3125 2.1875 0.963086 2.1875 1.76562V18.2344C2.1875 19.0369 2.84333 19.6875 3.65234 19.6875H10C10.2697 19.6875 10.4883 19.4706 10.4883 19.2031C10.4883 18.9356 10.2697 18.7188 10 18.7188H3.65234C3.38267 18.7188 3.16406 18.5019 3.16406 18.2344V1.76562C3.16406 1.49811 3.38267 1.28125 3.65234 1.28125H10C10.2697 1.28125 10.4883 1.06439 10.4883 0.796875C10.4883 0.529362 10.2697 0.3125 10 0.3125H3.65234Z" fill="#FE452C"/>
<path d="M13.7395 6.24485C13.5366 6.06869 13.2281 6.08909 13.0505 6.29041C12.8729 6.49174 12.8935 6.79775 13.0964 6.9739L16.0247 9.51562H7.55859C7.28892 9.51562 7.07031 9.73249 7.07031 10C7.07031 10.2675 7.28892 10.4844 7.55859 10.4844H16.0247L13.0964 13.0261C12.8935 13.2023 12.8729 13.5083 13.0505 13.7096C13.2281 13.9109 13.5366 13.9313 13.7395 13.7552L17.6458 10.3645C17.7517 10.2726 17.8125 10.1397 17.8125 10C17.8125 9.86032 17.7517 9.72745 17.6458 9.63547L13.7395 6.24485Z" fill="#FE452C"/>
</svg>
