<svg width="64" height="64" viewBox="0 0 64 64" fill="none" xmlns="http://www.w3.org/2000/svg">
<path d="M11.6875 1C9.09866 1 7 3.08188 7 5.65V58.35C7 60.9181 9.09867 63 11.6875 63H32C32.8629 63 33.5625 62.306 33.5625 61.45C33.5625 60.594 32.8629 59.9 32 59.9H11.6875C10.8246 59.9 10.125 59.206 10.125 58.35V5.65C10.125 4.79396 10.8246 4.1 11.6875 4.1H32C32.8629 4.1 33.5625 3.40604 33.5625 2.55C33.5625 1.69396 32.8629 1 32 1H11.6875Z" fill="#212121"/>
<path d="M43.9664 19.9835C43.317 19.4198 42.3299 19.4851 41.7616 20.1293C41.1933 20.7736 41.2592 21.7528 41.9086 22.3165L51.279 30.45H24.1875C23.3246 30.45 22.625 31.144 22.625 32C22.625 32.856 23.3246 33.55 24.1875 33.55H51.279L41.9086 41.6835C41.2592 42.2472 41.1933 43.2264 41.7616 43.8707C42.3299 44.5149 43.317 44.5802 43.9664 44.0165L56.4664 33.1665C56.8055 32.8722 57 32.447 57 32C57 31.553 56.8055 31.1278 56.4664 30.8335L43.9664 19.9835Z" fill="#212121"/>
</svg>
