<svg width="20" height="20" viewBox="0 0 20 20" fill="none" xmlns="http://www.w3.org/2000/svg">
<g id="ipe-notificacoes">
<path id="Union" fill-rule="evenodd" clip-rule="evenodd" d="M1.74638 2.1875C0.619286 2.1875 0.0164604 3.39798 0.457688 4.30215V16.3477C0.457688 17.1567 1.09839 17.8125 1.88874 17.8125H18.1073C18.8976 17.8125 19.5383 17.1567 19.5383 16.3477V4.31017C19.9872 3.40506 19.3839 2.1875 18.2536 2.1875H1.74638ZM1.41172 16.1454V5.25421L7.32648 10.0978C7.30876 10.1114 7.29176 10.1265 7.27563 10.143L1.41172 16.1454ZM2.08632 16.8359H17.9097L12.0458 10.8335C12.0064 10.7933 11.9754 10.7477 11.9527 10.6991L11.4487 11.1125L10.7732 11.5447C10.2962 11.8499 9.68888 11.8407 9.22091 11.5214L8.28514 10.8828L8.04807 10.6887C8.025 10.7412 7.99238 10.7904 7.95023 10.8335L2.08632 16.8359ZM12.6777 10.1042C12.6925 10.1161 12.7068 10.1291 12.7204 10.143L18.5843 16.1454V5.25833L12.6777 10.1042ZM1.44839 4.03363C1.09628 3.74529 1.29546 3.16406 1.74638 3.16406H18.2536C18.7043 3.16406 18.9036 3.74482 18.552 4.03335L10.8957 10.3147L10.2675 10.7166C10.1085 10.8183 9.9061 10.8153 9.75011 10.7088L8.84879 10.0938L1.44839 4.03363Z" fill="#212121"/>
</g>
</svg>
