<svg width="20" height="20" viewBox="0 0 20 20" fill="none" xmlns="http://www.w3.org/2000/svg">
<path fill-rule="evenodd" clip-rule="evenodd" d="M17.4421 0.79963C16.7926 0.150123 15.7395 0.150124 15.09 0.79963L2.01456 13.8751L1.6771 14.2125C1.46395 14.4257 1.31273 14.6928 1.23962 14.9852L0.339792 18.5845C0.177382 19.2342 0.765827 19.8226 1.41546 19.6602L5.01479 18.7604C5.30723 18.6873 5.5743 18.5361 5.78745 18.3229L6.12422 17.9861C6.12437 17.986 6.12407 17.9863 6.12422 17.9861C6.12437 17.986 6.12498 17.9854 6.12514 17.9852L19.2004 4.90999C19.8499 4.26048 19.8499 3.20742 19.2004 2.55791L17.4421 0.79963ZM5.73267 16.8096L17.1452 5.39712L14.6029 2.85481L3.19036 14.2673L5.73267 16.8096ZM2.41018 15.0552C2.36572 15.1143 2.33336 15.1819 2.3153 15.2541L1.5051 18.4949L4.74587 17.6847C4.81812 17.6666 4.88572 17.6343 4.9448 17.5898L2.41018 15.0552ZM15.874 1.58365C16.0905 1.36715 16.4416 1.36715 16.6581 1.58365L18.4163 3.34194C18.6328 3.55844 18.6328 3.90946 18.4163 4.12596L17.9292 4.61309L15.3869 2.07078L15.874 1.58365Z" fill="#fff"/>
</svg>
