<svg width="20" height="20" viewBox="0 0 20 20" fill="none" xmlns="http://www.w3.org/2000/svg">
<path fill-rule="evenodd" clip-rule="evenodd" d="M7.7483 11.8698C7.44693 11.8698 7.20431 12.1342 7.30937 12.4177C7.61537 13.2437 8.4402 13.803 9.59223 13.8882V14.3552C9.59223 14.5489 9.74865 14.7059 9.94159 14.7059C10.1345 14.7059 10.2909 14.5489 10.2909 14.3552V13.8882C11.8106 13.7682 12.7539 12.9219 12.7539 11.6697C12.7539 10.6004 12.1192 9.98285 10.7742 9.63405L10.2909 9.50826V6.95231C10.8679 7.00941 11.3006 7.2622 11.5283 7.65107C11.651 7.86071 11.85 8.03873 12.0922 8.03873C12.3963 8.03873 12.6392 7.76906 12.5233 7.48679C12.2032 6.70666 11.3876 6.17628 10.2909 6.10604V5.64481C10.2909 5.45111 10.1345 5.29409 9.94159 5.29409C9.74865 5.29409 9.59223 5.45111 9.59223 5.64481V6.1232C8.29379 6.27758 7.40294 7.11241 7.40294 8.24458C7.40294 9.22236 8.04924 9.91423 9.18465 10.2059L9.59223 10.3145V13.0248C8.99851 12.9365 8.54725 12.6639 8.3136 12.2598C8.19154 12.0486 7.99144 11.8698 7.7483 11.8698ZM9.45831 9.29097C8.7596 9.11371 8.38696 8.73633 8.38696 8.20455C8.38696 7.56985 8.85859 7.10098 9.59223 6.97518V9.32528L9.45831 9.29097ZM10.5239 10.5489C11.3856 10.7662 11.7641 11.1265 11.7641 11.7383C11.7641 12.4759 11.2109 12.9676 10.2909 13.042V10.4918L10.5239 10.5489Z" fill="#212121"/>
<path d="M15.0738 3.50071C14.9556 3.38205 14.764 3.38205 14.6458 3.50071C14.6429 3.50358 14.6402 3.50661 14.6377 3.5098L13.2365 5.30235L12.3917 4.4542C12.2735 4.33554 12.0818 4.33554 11.9636 4.4542C11.8455 4.57286 11.8455 4.76525 11.9636 4.88391L13.0316 5.95606C13.1498 6.07472 13.3414 6.07472 13.4596 5.95606C13.4623 5.95341 13.4647 5.95063 13.4671 5.94771L15.0781 3.92602C15.192 3.80705 15.1905 3.61792 15.0738 3.50071Z" fill="#212121"/>
<path fill-rule="evenodd" clip-rule="evenodd" d="M3.24334 0.588166C3.60945 0.220612 4.20305 0.220611 4.56916 0.588166L4.84375 0.863833L5.11834 0.588166C5.48445 0.220612 6.07805 0.220611 6.44416 0.588166L6.71875 0.863833L6.99334 0.588166C7.35945 0.220612 7.95305 0.220611 8.31916 0.588166L8.59375 0.863833L8.86834 0.588166C9.23445 0.220612 9.82805 0.220611 10.1942 0.588166L10.4688 0.863833L10.7433 0.588166C11.1095 0.220612 11.703 0.220611 12.0692 0.588166L12.3438 0.863833L12.6183 0.588166C12.9845 0.220612 13.578 0.220611 13.9442 0.588166L14.2188 0.863833L14.4933 0.588166C14.8595 0.220612 15.453 0.220611 15.8192 0.588166L16.0962 0.866304C16.6417 0.406822 17.5 0.790186 17.5 1.52935V18.2757C17.5 18.5253 17.4012 18.7647 17.2254 18.9412L16.7567 19.4118C16.3905 19.7794 15.797 19.7794 15.4308 19.4118L15.1562 19.1362L14.8817 19.4118C14.5155 19.7794 13.922 19.7794 13.5558 19.4118L13.2812 19.1362L13.0067 19.4118C12.6405 19.7794 12.047 19.7794 11.6808 19.4118L11.4062 19.1362L11.1317 19.4118C10.7655 19.7794 10.172 19.7794 9.80584 19.4118L9.53125 19.1362L9.25666 19.4118C8.89055 19.7794 8.29695 19.7794 7.93084 19.4118L7.65625 19.1362L7.38166 19.4118C7.01555 19.7794 6.42195 19.7794 6.05584 19.4118L5.78125 19.1362L5.50666 19.4118C5.14055 19.7794 4.54695 19.7794 4.18084 19.4118L3.90379 19.1337C3.35835 19.5932 2.5 19.2098 2.5 18.4706V1.72428C2.5 1.47466 2.59877 1.23526 2.77459 1.05876L3.24334 0.588166ZM3.90625 1.25368L3.4375 1.72428L3.4375 18.3014C3.7699 18.083 4.22026 18.1204 4.51229 18.4136L4.84375 18.7463L5.11834 18.4706C5.48445 18.1031 6.07805 18.1031 6.44416 18.4706L6.71875 18.7463L6.99334 18.4706C7.35945 18.1031 7.95305 18.1031 8.31916 18.4706L8.59375 18.7463L8.86834 18.4706C9.23445 18.1031 9.82805 18.1031 10.1942 18.4706L10.4688 18.7463L10.7433 18.4706C11.1095 18.1031 11.703 18.1031 12.0692 18.4706L12.3438 18.7463L12.6183 18.4706C12.9845 18.1031 13.578 18.1031 13.9442 18.4706L14.2188 18.7463L14.4933 18.4706C14.8595 18.1031 15.453 18.1031 15.8192 18.4706L16.0938 18.7463L16.5625 18.2757V1.69858C16.2301 1.91701 15.7797 1.87963 15.4877 1.58644L15.1562 1.25368L14.8817 1.52935C14.5155 1.89691 13.922 1.8969 13.5558 1.52935L13.2812 1.25368L13.0067 1.52935C12.6405 1.89691 12.047 1.8969 11.6808 1.52935L11.4062 1.25368L11.1317 1.52935C10.7655 1.89691 10.172 1.8969 9.80584 1.52935L9.53125 1.25368L9.25666 1.52935C8.89055 1.89691 8.29695 1.8969 7.93084 1.52935L7.65625 1.25368L7.38166 1.52935C7.01555 1.89691 6.42195 1.8969 6.05584 1.52935L5.78125 1.25368L5.50666 1.52935C5.14055 1.89691 4.54695 1.8969 4.18084 1.52935L3.90625 1.25368Z" fill="#212121"/>
</svg>
