<svg width="20" height="20" viewBox="0 0 20 20" fill="none" xmlns="http://www.w3.org/2000/svg">
<path d="M5.60547 3.21875C5.3358 3.21875 5.11719 3.43561 5.11719 3.70312C5.11719 3.97064 5.3358 4.1875 5.60547 4.1875H6.58203C6.8517 4.1875 7.07031 3.97064 7.07031 3.70312C7.07031 3.43561 6.8517 3.21875 6.58203 3.21875H5.60547Z" fill="#212121"/>
<path d="M8.53516 3.21875C8.26549 3.21875 8.04688 3.43561 8.04688 3.70312C8.04688 3.97064 8.26549 4.1875 8.53516 4.1875H14.3945C14.6642 4.1875 14.8828 3.97064 14.8828 3.70312C14.8828 3.43561 14.6642 3.21875 14.3945 3.21875H8.53516Z" fill="#212121"/>
<path d="M5.60547 6.125C5.3358 6.125 5.11719 6.34186 5.11719 6.60938C5.11719 6.87689 5.3358 7.09375 5.60547 7.09375H6.58203C6.8517 7.09375 7.07031 6.87689 7.07031 6.60938C7.07031 6.34186 6.8517 6.125 6.58203 6.125H5.60547Z" fill="#212121"/>
<path d="M8.53516 6.125C8.26549 6.125 8.04688 6.34186 8.04688 6.60938C8.04688 6.87689 8.26549 7.09375 8.53516 7.09375H14.3945C14.6642 7.09375 14.8828 6.87689 14.8828 6.60938C14.8828 6.34186 14.6642 6.125 14.3945 6.125H8.53516Z" fill="#212121"/>
<path d="M5.60547 9.03125C5.3358 9.03125 5.11719 9.24811 5.11719 9.51562C5.11719 9.78314 5.3358 10 5.60547 10H6.58203C6.8517 10 7.07031 9.78314 7.07031 9.51562C7.07031 9.24811 6.8517 9.03125 6.58203 9.03125H5.60547Z" fill="#212121"/>
<path d="M8.53516 9.03125C8.26549 9.03125 8.04688 9.24811 8.04688 9.51562C8.04688 9.78314 8.26549 10 8.53516 10H14.3945C14.6642 10 14.8828 9.78314 14.8828 9.51562C14.8828 9.24811 14.6642 9.03125 14.3945 9.03125H8.53516Z" fill="#212121"/>
<path d="M5.60547 11.9375C5.3358 11.9375 5.11719 12.1544 5.11719 12.4219C5.11719 12.6894 5.3358 12.9062 5.60547 12.9062H6.58203C6.8517 12.9062 7.07031 12.6894 7.07031 12.4219C7.07031 12.1544 6.8517 11.9375 6.58203 11.9375H5.60547Z" fill="#212121"/>
<path d="M8.53516 11.9375C8.26549 11.9375 8.04688 12.1544 8.04688 12.4219C8.04688 12.6894 8.26549 12.9062 8.53516 12.9062H14.3945C14.6642 12.9062 14.8828 12.6894 14.8828 12.4219C14.8828 12.1544 14.6642 11.9375 14.3945 11.9375H8.53516Z" fill="#212121"/>
<path d="M5.60547 14.8438C5.3358 14.8438 5.11719 15.0606 5.11719 15.3281C5.11719 15.5956 5.3358 15.8125 5.60547 15.8125H6.58203C6.8517 15.8125 7.07031 15.5956 7.07031 15.3281C7.07031 15.0606 6.8517 14.8438 6.58203 14.8438H5.60547Z" fill="#212121"/>
<path d="M8.53516 14.8438C8.26549 14.8438 8.04688 15.0606 8.04688 15.3281C8.04688 15.5956 8.26549 15.8125 8.53516 15.8125H14.3945C14.6642 15.8125 14.8828 15.5956 14.8828 15.3281C14.8828 15.0606 14.6642 14.8438 14.3945 14.8438H8.53516Z" fill="#212121"/>
<path fill-rule="evenodd" clip-rule="evenodd" d="M3.65234 0.3125C2.84333 0.3125 2.1875 0.963086 2.1875 1.76562V18.2344C2.1875 19.0369 2.84333 19.6875 3.65234 19.6875H16.3477C17.1567 19.6875 17.8125 19.0369 17.8125 18.2344V3.70312C17.8125 2.90059 17.1567 2.25 16.3477 2.25C16.078 2.25 15.8594 2.03314 15.8594 1.76562C15.8594 0.963086 15.2035 0.3125 14.3945 0.3125H3.65234ZM3.16406 1.76562C3.16406 1.49811 3.38267 1.28125 3.65234 1.28125H14.3945C14.6642 1.28125 14.8828 1.49811 14.8828 1.76562C14.8828 2.56816 15.5386 3.21875 16.3477 3.21875C16.6173 3.21875 16.8359 3.43561 16.8359 3.70312V18.2344C16.8359 18.5019 16.6173 18.7188 16.3477 18.7188H3.65234C3.38267 18.7188 3.16406 18.5019 3.16406 18.2344V1.76562Z" fill="#212121"/>
</svg>
