<svg width="30" height="30" viewBox="0 0 30 30" fill="none" xmlns="http://www.w3.org/2000/svg">
<path d="M25.1719 17.9297C25.9744 17.9297 26.625 17.2738 26.625 16.4648C26.625 15.6559 25.9744 15 25.1719 15C24.3694 15 23.7188 15.6559 23.7188 16.4648C23.7188 17.2738 24.3694 17.9297 25.1719 17.9297Z" fill="#FAFAFA"/>
<path fill-rule="evenodd" clip-rule="evenodd" d="M28.0781 10.6055C28.0781 10.647 28.0746 10.6874 28.0682 10.7271C28.9203 11.0257 29.5312 11.8421 29.5312 12.8027V20.127C29.5312 21.0875 28.9203 21.904 28.0682 22.2026C28.0717 22.2255 28.0746 22.2488 28.076 22.2724L28.0781 22.3242V24.5215C28.0781 25.7349 27.1025 26.7188 25.8984 26.7188H2.64844C1.44436 26.7188 0.46875 25.7349 0.46875 24.5215V5.47852C0.46875 4.26508 1.44436 3.28125 2.64844 3.28125H21.5391C22.7431 3.28125 23.7188 4.26508 23.7188 5.47852V6.21094H25.8984C27.1025 6.21094 28.0781 7.19477 28.0781 8.4082V10.6055ZM2.64844 4.74609C2.24684 4.74609 1.92188 5.07404 1.92188 5.47852C1.92188 5.51428 1.924 5.54897 1.92897 5.5833C1.93607 5.63051 1.94742 5.67628 1.96232 5.71991C1.98431 5.78286 2.01411 5.84187 2.05101 5.89587C2.18227 6.08648 2.40081 6.21094 2.64844 6.21094H22.2656V5.47852C22.2656 5.07404 21.9407 4.74609 21.5391 4.74609H2.64844ZM1.92188 8.4082C1.92188 8.00373 2.24684 7.67578 2.64844 7.67578H25.8984C26.3 7.67578 26.625 8.00373 26.625 8.4082V10.6055H22.9922C21.7881 10.6055 20.8125 11.5893 20.8125 12.8027V20.127C20.8125 21.3404 21.7881 22.3242 22.9922 22.3242H26.625V24.5215C26.625 24.926 26.3 25.2539 25.8984 25.2539H2.64844C2.24684 25.2539 1.92188 24.926 1.92188 24.5215V8.4082ZM22.9922 12.0703C22.5906 12.0703 22.2656 12.3983 22.2656 12.8027V20.127C22.2656 20.5314 22.5906 20.8594 22.9922 20.8594H27.3516C27.5715 20.8594 27.7688 20.761 27.9015 20.6055C28.0114 20.4771 28.0781 20.3097 28.0781 20.127V12.8027C28.0781 12.6983 28.0561 12.5989 28.0171 12.5091C27.9788 12.4211 27.9242 12.3421 27.8568 12.2759C27.7532 12.1751 27.6198 12.1054 27.4722 12.0803C27.4332 12.0739 27.3927 12.0703 27.3516 12.0703H22.9922Z" fill="#FAFAFA"/>
</svg>
