<svg width="20" height="20" viewBox="0 0 20 20" fill="none" xmlns="http://www.w3.org/2000/svg">
<path fill-rule="evenodd" clip-rule="evenodd" d="M12.3289 1.51647L12.2387 1.27526C11.9952 0.624263 11.3233 0.229269 10.6262 0.327384L8.79324 0.58537C8.12117 0.679962 7.60702 1.20618 7.52311 1.85467L3.63929 2.12799C3.04248 2.16999 2.53812 2.57973 2.38257 3.14896C2.13202 4.0658 2.87128 4.95337 3.83287 4.89021L16.3604 4.06737C17.2633 4.00807 17.8858 3.15016 17.6505 2.28926C17.4719 1.63561 16.8481 1.19844 16.1627 1.24667L12.3289 1.51647ZM11.2943 1.58928C11.2058 1.3873 10.9903 1.26697 10.767 1.29839L8.93403 1.55638C8.78497 1.57736 8.65921 1.66204 8.5835 1.78005L11.2943 1.58928ZM16.6892 2.54426C16.6345 2.34413 16.4435 2.21027 16.2337 2.22504L3.71022 3.10636C3.53626 3.11861 3.38924 3.23804 3.3439 3.40396C3.27087 3.67121 3.48636 3.92993 3.76665 3.91152L16.2942 3.08868C16.5707 3.07052 16.7612 2.80785 16.6892 2.54426Z" fill="#FE452C"/>
<path d="M6.01388 8.34672C5.97978 8.07795 5.73099 7.88731 5.4582 7.9209C5.1854 7.9545 4.9919 8.19961 5.026 8.46838L6.02157 16.3153C6.05567 16.5841 6.30446 16.7747 6.57725 16.7411C6.85005 16.7075 7.04355 16.4624 7.00945 16.1936L6.01388 8.34672Z" fill="#FE452C"/>
<path d="M14.974 8.46838C15.0081 8.19961 14.8146 7.9545 14.5418 7.9209C14.269 7.88731 14.0202 8.07795 13.9861 8.34672L12.9905 16.1936C12.9565 16.4624 13.15 16.7075 13.4227 16.7411C13.6955 16.7747 13.9443 16.5841 13.9784 16.3153L14.974 8.46838Z" fill="#FE452C"/>
<path d="M10.4978 8.40755C10.4978 8.13669 10.2749 7.91711 10 7.91711C9.72508 7.91711 9.50222 8.13669 9.50222 8.40755V16.2545C9.50222 16.5253 9.72508 16.7449 10 16.7449C10.2749 16.7449 10.4978 16.5253 10.4978 16.2545V8.40755Z" fill="#FE452C"/>
<path fill-rule="evenodd" clip-rule="evenodd" d="M2.20279 6.65389C2.07427 5.76753 2.77235 4.97452 3.68113 4.97452H16.3189C17.2276 4.97452 17.9257 5.76753 17.7972 6.65389L16.0905 18.4243C15.9854 19.1491 15.3553 19.6875 14.6122 19.6875H5.38782C4.64466 19.6875 4.01458 19.1491 3.90948 18.4243L2.20279 6.65389ZM3.68113 5.95538C3.37821 5.95538 3.14551 6.21972 3.18835 6.51517L4.89504 18.2856C4.93008 18.5272 5.1401 18.7066 5.38782 18.7066H14.6122C14.8599 18.7066 15.0699 18.5272 15.105 18.2856L16.8116 6.51517C16.8545 6.21972 16.6218 5.95538 16.3189 5.95538H3.68113Z" fill="#FE452C"/>
</svg>
