<svg width="30" height="30" viewBox="0 0 30 30" fill="none" xmlns="http://www.w3.org/2000/svg">
<path fill-rule="evenodd" clip-rule="evenodd" d="M11.6224 17.8047C11.1704 17.8047 10.8065 18.2013 10.9641 18.6266C11.4231 19.8655 12.6603 20.7046 14.3884 20.8324V21.5328C14.3884 21.8233 14.623 22.0589 14.9124 22.0589C15.2018 22.0589 15.4364 21.8233 15.4364 21.5328V20.8324C17.716 20.6523 19.1309 19.3829 19.1309 17.5045C19.1309 15.9006 18.1789 14.9743 16.1613 14.4511L15.4364 14.2624V10.4285C16.3019 10.5141 16.9509 10.8933 17.2924 11.4766C17.4765 11.7911 17.7749 12.0581 18.1383 12.0581C18.5944 12.0581 18.9588 11.6536 18.785 11.2302C18.3047 10.06 17.0814 9.26442 15.4364 9.15906V8.46722C15.4364 8.17667 15.2018 7.94113 14.9124 7.94113C14.623 7.94113 14.3884 8.17667 14.3884 8.46722V9.18479C12.4407 9.41637 11.1044 10.6686 11.1044 12.3669C11.1044 13.8335 12.0739 14.8714 13.777 15.3088L14.3884 15.4717V19.5372C13.4978 19.4047 12.8209 18.9958 12.4704 18.3896C12.2873 18.073 11.9872 17.8047 11.6224 17.8047ZM14.1875 13.9365C13.1394 13.6706 12.5804 13.1045 12.5804 12.3068C12.5804 11.3548 13.2879 10.6515 14.3884 10.4628V13.9879L14.1875 13.9365ZM15.7858 15.8234C17.0784 16.1493 17.6461 16.6897 17.6461 17.6074C17.6461 18.7139 16.8164 19.4515 15.4364 19.563V15.7376L15.7858 15.8234Z" fill="#FAFAFA"/>
<path d="M22.6107 5.25107C22.4334 5.07308 22.1459 5.07308 21.9687 5.25107C21.9644 5.25537 21.9604 5.25992 21.9566 5.2647L19.8547 7.95352L18.5875 6.6813C18.4102 6.50332 18.1228 6.50332 17.9455 6.6813C17.7682 6.85929 17.7682 7.14787 17.9455 7.32586L19.5474 8.93408C19.7247 9.11207 20.0121 9.11207 20.1894 8.93408C20.1934 8.93012 20.1971 8.92594 20.2006 8.92156L22.6171 5.88903C22.788 5.71057 22.7858 5.42687 22.6107 5.25107Z" fill="#FAFAFA"/>
<path fill-rule="evenodd" clip-rule="evenodd" d="M4.86501 0.88225C5.41418 0.330918 6.30457 0.330916 6.85374 0.88225L7.26562 1.29575L7.67751 0.88225C8.22668 0.330918 9.11707 0.330916 9.66624 0.88225L10.0781 1.29575L10.49 0.88225C11.0392 0.330918 11.9296 0.330916 12.4787 0.88225L12.8906 1.29575L13.3025 0.88225C13.8517 0.330918 14.7421 0.330916 15.2912 0.88225L15.7031 1.29575L16.115 0.88225C16.6642 0.330918 17.5546 0.330916 18.1037 0.88225L18.5156 1.29575L18.9275 0.88225C19.4767 0.330918 20.3671 0.330916 20.9162 0.88225L21.3281 1.29575L21.74 0.88225C22.2892 0.330918 23.1796 0.330916 23.7287 0.88225L24.1443 1.29946C24.9625 0.610233 26.25 1.18528 26.25 2.29402V27.4136C26.25 27.788 26.1018 28.1471 25.8381 28.4119L25.135 29.1177C24.5858 29.6691 23.6954 29.6691 23.1463 29.1177L22.7344 28.7042L22.3225 29.1177C21.7733 29.6691 20.8829 29.6691 20.3338 29.1177L19.9219 28.7042L19.51 29.1177C18.9608 29.6691 18.0704 29.6691 17.5213 29.1177L17.1094 28.7042L16.6975 29.1177C16.1483 29.6691 15.2579 29.6691 14.7088 29.1177L14.2969 28.7042L13.885 29.1177C13.3358 29.6691 12.4454 29.6691 11.8963 29.1177L11.4844 28.7042L11.0725 29.1177C10.5233 29.6691 9.63293 29.6691 9.08376 29.1177L8.67188 28.7042L8.25999 29.1177C7.71082 29.6691 6.82043 29.6691 6.27126 29.1177L5.85568 28.7005C5.03752 29.3898 3.75 28.8147 3.75 27.706V2.58641C3.75 2.21199 3.89816 1.8529 4.16188 1.58814L4.86501 0.88225ZM5.85938 1.88053L5.15625 2.58641L5.15625 27.4521C5.65486 27.1245 6.33039 27.1806 6.76844 27.6203L7.26563 28.1195L7.67751 27.706C8.22668 27.1546 9.11707 27.1546 9.66624 27.706L10.0781 28.1195L10.49 27.706C11.0392 27.1546 11.9296 27.1546 12.4787 27.706L12.8906 28.1195L13.3025 27.706C13.8517 27.1546 14.7421 27.1546 15.2912 27.706L15.7031 28.1195L16.115 27.706C16.6642 27.1546 17.5546 27.1546 18.1037 27.706L18.5156 28.1195L18.9275 27.706C19.4767 27.1546 20.3671 27.1546 20.9162 27.706L21.3281 28.1195L21.74 27.706C22.2892 27.1546 23.1796 27.1546 23.7287 27.706L24.1406 28.1195L24.8438 27.4136V2.54786C24.3451 2.87551 23.6696 2.81944 23.2316 2.37966L22.7344 1.88053L22.3225 2.29403C21.7733 2.84536 20.8829 2.84536 20.3338 2.29403L19.9219 1.88053L19.51 2.29403C18.9608 2.84536 18.0704 2.84536 17.5213 2.29403L17.1094 1.88053L16.6975 2.29403C16.1483 2.84536 15.2579 2.84536 14.7088 2.29403L14.2969 1.88053L13.885 2.29403C13.3358 2.84536 12.4454 2.84536 11.8963 2.29403L11.4844 1.88053L11.0725 2.29403C10.5233 2.84536 9.63293 2.84536 9.08376 2.29403L8.67188 1.88053L8.25999 2.29403C7.71082 2.84536 6.82043 2.84536 6.27126 2.29403L5.85938 1.88053Z" fill="#FAFAFA"/>
</svg>
