<svg width="30" height="30" viewBox="0 0 30 30" fill="none" xmlns="http://www.w3.org/2000/svg">
<path d="M4.10159 15C4.10159 9.06091 8.98098 4.24632 15 4.24632C19.5726 4.24632 23.4892 7.02521 25.1065 10.9675C25.257 11.3345 25.6806 11.5116 26.0526 11.3631C26.4245 11.2145 26.604 10.7965 26.4534 10.4295C24.6217 5.96439 20.1847 2.8125 15 2.8125C8.17844 2.8125 2.64847 8.26903 2.64847 15L1.7766 13.8529C1.53584 13.5362 1.08043 13.472 0.759417 13.7096C0.438402 13.9471 0.373344 14.3965 0.614105 14.7132L2.44504 17.1221C2.91004 17.7338 3.84003 17.7338 4.30503 17.1221L6.13596 14.7132C6.37672 14.3965 6.31167 13.9471 5.99065 13.7096C5.66964 13.472 5.21423 13.5362 4.97347 13.8529L4.10159 15Z" fill="#FAFAFA"/>
<path d="M25.7803 16.5892L25.0265 17.5809C24.7858 17.8976 24.3304 17.9618 24.0093 17.7243C23.6883 17.4867 23.6233 17.0373 23.864 16.7206L25.695 14.3118C26.16 13.7 27.09 13.7 27.555 14.3118L29.3859 16.7206C29.6267 17.0373 29.5616 17.4867 29.2406 17.7243C28.9196 17.9618 28.4642 17.8976 28.2234 17.5809L27.278 16.3371C26.6029 22.4393 21.3637 27.1875 15 27.1875C10.4273 27.1875 6.43587 24.7353 4.30133 21.0943C4.10041 20.7515 4.2191 20.313 4.56644 20.1147C4.91378 19.9165 5.35824 20.0336 5.55916 20.3763C7.44464 23.5925 10.967 25.7537 15 25.7537C20.4717 25.7537 25.0021 21.7745 25.7803 16.5892Z" fill="#FAFAFA"/>
</svg>
