<svg width="20" height="20" viewBox="0 0 20 20" fill="none" xmlns="http://www.w3.org/2000/svg">
<path fill-rule="evenodd" clip-rule="evenodd" d="M10 10.9688C12.1401 10.9688 13.875 9.23385 13.875 7.09375C13.875 4.95365 12.1401 3.21875 10 3.21875C7.8599 3.21875 6.125 4.95365 6.125 7.09375C6.125 9.23385 7.8599 10.9688 10 10.9688ZM10 10C11.6051 10 12.9062 8.69883 12.9062 7.09375C12.9062 5.48867 11.6051 4.1875 10 4.1875C8.39492 4.1875 7.09375 5.48867 7.09375 7.09375C7.09375 8.69883 8.39492 10 10 10Z" fill="#212121"/>
<path d="M10 11.9375C9.07458 11.9375 7.67747 12.087 6.49286 12.5523C5.32631 13.0104 4.1875 13.857 4.1875 15.3281C4.1875 15.5956 4.40436 15.8125 4.67188 15.8125C4.93939 15.8125 5.15625 15.5956 5.15625 15.3281C5.15625 14.4742 5.79348 13.8677 6.84698 13.454C7.88243 13.0473 9.14938 12.9062 10 12.9062C10.8506 12.9062 12.1176 13.0473 13.153 13.454C14.2065 13.8677 14.8438 14.4742 14.8438 15.3281C14.8438 15.5956 15.0606 15.8125 15.3281 15.8125C15.5956 15.8125 15.8125 15.5956 15.8125 15.3281C15.8125 13.857 14.6737 13.0104 13.5071 12.5523C12.3225 12.087 10.9254 11.9375 10 11.9375Z" fill="#212121"/>
<path fill-rule="evenodd" clip-rule="evenodd" d="M10 19.6875C15.3503 19.6875 19.6875 15.3503 19.6875 10C19.6875 4.64974 15.3503 0.3125 10 0.3125C4.64974 0.3125 0.3125 4.64974 0.3125 10C0.3125 15.3503 4.64974 19.6875 10 19.6875ZM10 18.7188C14.8152 18.7188 18.7188 14.8152 18.7188 10C18.7188 5.18477 14.8152 1.28125 10 1.28125C5.18477 1.28125 1.28125 5.18477 1.28125 10C1.28125 14.8152 5.18477 18.7188 10 18.7188Z" fill="#212121"/>
</svg>
