<svg width="20" height="20" viewBox="0 0 20 20" fill="none" xmlns="http://www.w3.org/2000/svg">
<g id="ipe-engrenagem">
<g id="Union">
<path fill-rule="evenodd" clip-rule="evenodd" d="M14.4717 10C14.4717 12.4533 12.4697 14.4421 10 14.4421C7.53034 14.4421 5.52829 12.4533 5.52829 10C5.52829 7.54668 7.53034 5.55788 10 5.55788C12.4697 5.55788 14.4717 7.54668 14.4717 10ZM13.3538 10C13.3538 11.84 11.8522 13.3316 10 13.3316C8.14776 13.3316 6.64621 11.84 6.64621 10C6.64621 8.16001 8.14776 6.66841 10 6.66841C11.8522 6.66841 13.3538 8.16001 13.3538 10Z" fill="#212121"/>
<path fill-rule="evenodd" clip-rule="evenodd" d="M8.35847 1.14455C9.16791 0.0351515 10.8321 0.0351517 11.6415 1.14455C12.158 1.85237 13.0751 2.1484 13.9118 1.87731C15.223 1.45241 16.5694 2.42412 16.5678 3.79427C16.5668 4.66846 17.1336 5.44347 17.9709 5.71266C19.2831 6.13456 19.7974 7.70682 18.9854 8.81437C18.4673 9.52102 18.4673 10.479 18.9854 11.1856C19.7974 12.2932 19.2831 13.8654 17.9709 14.2873C17.1336 14.5565 16.5668 15.3315 16.5678 16.2057C16.5694 17.5759 15.223 18.5476 13.9118 18.1227C13.0751 17.8516 12.158 18.1476 11.6415 18.8555C10.8321 19.9648 9.16791 19.9648 8.35847 18.8555C7.84203 18.1476 6.92488 17.8516 6.08824 18.1227C4.77697 18.5476 3.43061 17.5759 3.43219 16.2057C3.4332 15.3315 2.86637 14.5565 2.02911 14.2873C0.716861 13.8654 0.202598 12.2932 1.01459 11.1856C1.53267 10.479 1.53267 9.52102 1.01459 8.81437C0.202598 7.70682 0.716861 6.13456 2.02911 5.71266C2.86637 5.44347 3.4332 4.66846 3.43219 3.79427C3.43061 2.42412 4.77697 1.45241 6.08824 1.87731C6.92488 2.1484 7.84203 1.85237 8.35847 1.14455ZM5.74156 2.93309C7.03954 3.35367 8.46243 2.89441 9.26365 1.79627C9.62674 1.29862 10.3733 1.29862 10.7364 1.79627C11.5376 2.89441 12.9605 3.35367 14.2584 2.93309C14.8466 2.74249 15.4506 3.17838 15.4499 3.79299C15.4483 5.14924 16.3277 6.35161 17.6266 6.76923C18.2153 6.95848 18.446 7.66377 18.0817 8.16058C17.278 9.25689 17.278 10.7431 18.0817 11.8394C18.446 12.3362 18.2153 13.0415 17.6266 13.2308C16.3277 13.6484 15.4483 14.8508 15.4499 16.207C15.4506 16.8216 14.8466 17.2575 14.2584 17.0669C12.9605 16.6463 11.5376 17.1056 10.7364 18.2037C10.3733 18.7014 9.62674 18.7014 9.26365 18.2037C8.46243 17.1056 7.03954 16.6463 5.74156 17.0669C5.15336 17.2575 4.54941 16.8216 4.55012 16.207C4.55169 14.8508 3.67229 13.6484 2.37335 13.2308C1.78471 13.0415 1.55402 12.3362 1.91826 11.8394C2.72202 10.7431 2.72202 9.25689 1.91826 8.16058C1.55402 7.66377 1.78471 6.95848 2.37335 6.76923C3.67229 6.35161 4.55169 5.14924 4.55012 3.79299C4.54941 3.17838 5.15336 2.74249 5.74156 2.93309Z" fill="#212121"/>
</g>
</g>
</svg>
