<svg width="159" height="46" viewBox="0 0 159 46" fill="none" xmlns="http://www.w3.org/2000/svg">
<path d="M5.68974 8.68401V35.7594H0.252441V8.68401H5.68974Z" fill="#4400A5"/>
<path d="M16.6933 17.3729C17.3924 16.3903 18.3504 15.5757 19.5673 14.9292C20.8101 14.2568 22.2212 13.9206 23.8006 13.9206C25.6389 13.9206 27.296 14.3732 28.7719 15.2783C30.2736 16.1834 31.4517 17.4764 32.3061 19.1573C33.1864 20.8123 33.6266 22.7389 33.6266 24.937C33.6266 27.1351 33.1864 29.0875 32.3061 30.7943C31.4517 32.4752 30.2736 33.7811 28.7719 34.712C27.296 35.643 25.6389 36.1085 23.8006 36.1085C22.2212 36.1085 20.823 35.7852 19.6061 35.1387C18.4151 34.4922 17.4442 33.6776 16.6933 32.695V45.9999H11.256V14.2698H16.6933V17.3729ZM28.0728 24.937C28.0728 23.644 27.8009 22.532 27.2572 21.6011C26.7393 20.6442 26.0403 19.9202 25.1599 19.4288C24.3055 18.9375 23.3734 18.6918 22.3636 18.6918C21.3797 18.6918 20.4476 18.9504 19.5673 19.4676C18.7129 19.9589 18.0138 20.683 17.47 21.6398C16.9522 22.5967 16.6933 23.7216 16.6933 25.0146C16.6933 26.3076 16.9522 27.4325 17.47 28.3893C18.0138 29.3461 18.7129 30.0831 19.5673 30.6003C20.4476 31.0917 21.3797 31.3373 22.3636 31.3373C23.3734 31.3373 24.3055 31.0787 25.1599 30.5615C26.0403 30.0443 26.7393 29.3073 27.2572 28.3505C27.8009 27.3937 28.0728 26.2558 28.0728 24.937Z" fill="#4400A5"/>
<path d="M57.7734 24.5491C57.7734 25.3249 57.7216 26.0231 57.6181 26.6437H41.8887C42.0182 28.1953 42.5619 29.4108 43.5199 30.29C44.4779 31.1692 45.656 31.6089 47.0542 31.6089C49.0737 31.6089 50.5107 30.7425 51.3652 29.0099H57.2297C56.6083 31.0787 55.4172 32.7855 53.6566 34.1302C51.896 35.4491 49.734 36.1085 47.1707 36.1085C45.0993 36.1085 43.2351 35.6559 41.578 34.7508C39.9468 33.8199 38.6652 32.5139 37.7331 30.8331C36.8269 29.1522 36.3738 27.2127 36.3738 25.0146C36.3738 22.7906 36.8269 20.8382 37.7331 19.1573C38.6393 17.4764 39.908 16.1834 41.5392 15.2783C43.1704 14.3732 45.0475 13.9206 47.1707 13.9206C49.2161 13.9206 51.0415 14.3603 52.6468 15.2395C54.278 16.1187 55.5338 17.3729 56.4141 19.0021C57.3203 20.6054 57.7734 22.4544 57.7734 24.5491ZM52.1419 22.9975C52.116 21.6011 51.6111 20.4891 50.6272 19.6616C49.6434 18.8082 48.4394 18.3815 47.0153 18.3815C45.6689 18.3815 44.5297 18.7952 43.5976 19.6228C42.6914 20.4244 42.1347 21.5493 41.9276 22.9975H52.1419ZM47.093 9.42101L41.3062 12.6794V8.7228L47.093 5.58081L52.841 8.7228V12.6794L47.093 9.42101Z" fill="#4400A5"/>
<path d="M71.2963 36.0309C69.4062 36.0309 67.6973 35.7077 66.1697 35.0612C64.6679 34.4147 63.4769 33.4837 62.5966 32.2683C61.7163 31.0529 61.2631 29.6176 61.2373 27.9626H67.0629C67.1406 29.0746 67.529 29.9538 68.2281 30.6003C68.953 31.2468 69.9369 31.5701 71.1797 31.5701C72.4484 31.5701 73.4453 31.2727 74.1703 30.6779C74.8952 30.0573 75.2577 29.2556 75.2577 28.2729C75.2577 27.4713 75.0117 26.8118 74.5198 26.2946C74.0279 25.7774 73.4064 25.3766 72.6556 25.0921C71.9306 24.7818 70.9208 24.4456 69.6262 24.0836C67.8656 23.5664 66.4286 23.0621 65.3152 22.5708C64.2278 22.0536 63.2827 21.2907 62.4801 20.2822C61.7033 19.2478 61.3149 17.8772 61.3149 16.1705C61.3149 14.5671 61.7163 13.1707 62.5189 11.9811C63.3216 10.7916 64.4479 9.88649 65.8978 9.26585C67.3477 8.61936 69.0048 8.29611 70.869 8.29611C73.6654 8.29611 75.9309 8.9814 77.6657 10.352C79.4263 11.6967 80.3973 13.5845 80.5785 16.0153H74.5975C74.5457 15.0843 74.1444 14.3215 73.3935 13.7267C72.6685 13.1061 71.6976 12.7957 70.4807 12.7957C69.4191 12.7957 68.5647 13.0673 67.9174 13.6103C67.296 14.1534 66.9853 14.9421 66.9853 15.9765C66.9853 16.7006 67.2183 17.3083 67.6843 17.7996C68.1763 18.2651 68.7718 18.653 69.4709 18.9633C70.1959 19.2478 71.2056 19.584 72.5002 19.9719C74.2609 20.4891 75.6979 21.0063 76.8112 21.5235C77.9246 22.0407 78.8826 22.8165 79.6852 23.8509C80.4879 24.8853 80.8892 26.2429 80.8892 27.9238C80.8892 29.372 80.5138 30.7167 79.7629 31.958C79.012 33.1992 77.9116 34.1948 76.4617 34.9448C75.0117 35.6689 73.2899 36.0309 71.2963 36.0309Z" fill="#FF8429"/>
<path d="M97.9147 13.9594C99.5459 13.9594 100.996 14.3215 102.265 15.0456C103.533 15.7438 104.517 16.7911 105.216 18.1875C105.941 19.5581 106.304 21.2132 106.304 23.1526V35.7594H100.866V23.8897C100.866 22.1829 100.439 20.877 99.5848 19.9719C98.7303 19.0409 97.5652 18.5754 96.0894 18.5754C94.5876 18.5754 93.3966 19.0409 92.5163 19.9719C91.6619 20.877 91.2346 22.1829 91.2346 23.8897V35.7594H85.7973V7.05483H91.2346V16.9463C91.9337 16.0153 92.8658 15.2912 94.031 14.774C95.1961 14.231 96.4907 13.9594 97.9147 13.9594Z" fill="#FF8429"/>
<path d="M121.223 36.1085C119.151 36.1085 117.287 35.6559 115.63 34.7508C113.973 33.8199 112.665 32.5139 111.707 30.8331C110.775 29.1522 110.309 27.2127 110.309 25.0146C110.309 22.8165 110.788 20.877 111.746 19.1961C112.73 17.5152 114.063 16.2222 115.746 15.3171C117.429 14.3861 119.307 13.9206 121.378 13.9206C123.449 13.9206 125.326 14.3861 127.009 15.3171C128.692 16.2222 130.013 17.5152 130.971 19.1961C131.955 20.877 132.447 22.8165 132.447 25.0146C132.447 27.2127 131.942 29.1522 130.932 30.8331C129.948 32.5139 128.602 33.8199 126.893 34.7508C125.21 35.6559 123.32 36.1085 121.223 36.1085ZM121.223 31.3761C122.207 31.3761 123.126 31.1434 123.98 30.6779C124.86 30.1866 125.56 29.4625 126.077 28.5057C126.595 27.5488 126.854 26.3851 126.854 25.0146C126.854 22.9716 126.31 21.4071 125.223 20.321C124.161 19.209 122.854 18.653 121.3 18.653C119.747 18.653 118.439 19.209 117.378 20.321C116.342 21.4071 115.824 22.9716 115.824 25.0146C115.824 27.0575 116.329 28.635 117.339 29.7469C118.374 30.8331 119.669 31.3761 121.223 31.3761Z" fill="#FF8429"/>
<path d="M142.067 17.3729C142.766 16.3903 143.724 15.5757 144.941 14.9292C146.184 14.2568 147.595 13.9206 149.174 13.9206C151.012 13.9206 152.669 14.3732 154.145 15.2783C155.647 16.1834 156.825 17.4764 157.68 19.1573C158.56 20.8123 159 22.7389 159 24.937C159 27.1351 158.56 29.0875 157.68 30.7943C156.825 32.4752 155.647 33.7811 154.145 34.712C152.669 35.643 151.012 36.1085 149.174 36.1085C147.595 36.1085 146.196 35.7852 144.98 35.1387C143.788 34.4922 142.818 33.6776 142.067 32.695V45.9999H136.629V14.2698H142.067V17.3729ZM153.446 24.937C153.446 23.644 153.174 22.532 152.631 21.6011C152.113 20.6442 151.414 19.9202 150.533 19.4288C149.679 18.9375 148.747 18.6918 147.737 18.6918C146.753 18.6918 145.821 18.9504 144.941 19.4676C144.086 19.9589 143.387 20.683 142.843 21.6398C142.326 22.5967 142.067 23.7216 142.067 25.0146C142.067 26.3076 142.326 27.4325 142.843 28.3893C143.387 29.3461 144.086 30.0831 144.941 30.6003C145.821 31.0917 146.753 31.3373 147.737 31.3373C148.747 31.3373 149.679 31.0787 150.533 30.5615C151.414 30.0443 152.113 29.3073 152.631 28.3505C153.174 27.3937 153.446 26.2558 153.446 24.937Z" fill="#FF8429"/>
<ellipse cx="3.03435" cy="3.03046" rx="3.03435" ry="3.03046" fill="#FF8429"/>
</svg>
