<svg width="20" height="20" viewBox="0 0 20 20" fill="none" xmlns="http://www.w3.org/2000/svg">
<path d="M10 1.25C11.7259 1.25 13.125 2.64911 13.125 4.375V5H6.875V4.375C6.875 2.64911 8.27411 1.25 10 1.25ZM14.375 5V4.375C14.375 1.95875 12.4162 0 10 0C7.58375 0 5.625 1.95875 5.625 4.375V5H1.25V17.5C1.25 18.8807 2.36929 20 3.75 20H16.25C17.6307 20 18.75 18.8807 18.75 17.5V5H14.375ZM2.5 6.25H17.5V17.5C17.5 18.1904 16.9404 18.75 16.25 18.75H3.75C3.05964 18.75 2.5 18.1904 2.5 17.5V6.25Z" fill="#F37800"/>
</svg>
