<svg width="20" height="20" viewBox="0 0 20 20" fill="none" xmlns="http://www.w3.org/2000/svg">
<path fill-rule="evenodd" clip-rule="evenodd" d="M13.7674 3.85693V1.92708C13.7674 1.03537 14.4902 0.3125 15.3819 0.3125H15.9201C16.8118 0.3125 17.5347 1.03537 17.5347 1.92708V7.62429L19.5299 9.61944C19.74 9.82962 19.74 10.1704 19.5299 10.3806C19.3197 10.5907 18.9789 10.5907 18.7687 10.3806L10.3806 1.99238C10.1704 1.7822 9.82962 1.7822 9.61944 1.99238L1.23126 10.3806C1.02108 10.5907 0.680311 10.5907 0.470133 10.3806C0.259955 10.1704 0.259955 9.82962 0.470133 9.61944L8.85832 1.23126C9.48885 0.600721 10.5111 0.600721 11.1417 1.23126L13.7674 3.85693ZM14.8437 1.92708C14.8437 1.62985 15.0847 1.38889 15.3819 1.38889H15.9201C16.2174 1.38889 16.4583 1.62985 16.4583 1.92708V6.5479L14.8437 4.93332V1.92708Z" fill="#F37800"/>
<path d="M3.54167 10V18.0729C3.54167 18.3702 3.78262 18.6111 4.07986 18.6111H15.9201C16.2174 18.6111 16.4583 18.3702 16.4583 18.0729V10C16.4583 9.70276 16.6993 9.46181 16.9965 9.46181C17.2938 9.46181 17.5347 9.70276 17.5347 10V18.0729C17.5347 18.9646 16.8118 19.6875 15.9201 19.6875H4.07986C3.18815 19.6875 2.46528 18.9646 2.46528 18.0729V10C2.46528 9.70276 2.70624 9.46181 3.00347 9.46181C3.30071 9.46181 3.54167 9.70276 3.54167 10Z" fill="#F37800"/>
</svg>
