<svg width="20" height="20" viewBox="0 0 20 20" fill="none" xmlns="http://www.w3.org/2000/svg">
<path fill-rule="evenodd" clip-rule="evenodd" d="M7.22332 12.7074C7.11155 12.4049 7.3651 12.1219 7.68011 12.1219C7.93368 12.1219 8.14242 12.3126 8.27123 12.5369C8.51568 12.9625 8.98618 13.2496 9.6048 13.3427V10.4781L9.1792 10.3632C7.99359 10.055 7.31871 9.32376 7.31871 8.2903C7.31871 7.09368 8.24895 6.21131 9.6048 6.04814V5.54642C9.6048 5.33953 9.76813 5.17182 9.9696 5.17182C10.1711 5.17182 10.3344 5.33953 10.3344 5.54642V6.03001C11.4767 6.10405 12.3269 6.66199 12.6629 7.48313C12.7861 7.78403 12.5323 8.07273 12.2144 8.07273C11.9619 8.07273 11.7544 7.88295 11.6248 7.66028C11.3867 7.25081 10.9356 6.98467 10.3344 6.92446V9.62593L10.839 9.75889C12.2435 10.1276 12.9062 10.7803 12.9062 11.9104C12.9062 13.2339 11.9213 14.1284 10.3344 14.2553V14.7449C10.3344 14.9518 10.1711 15.1195 9.9696 15.1195C9.76813 15.1195 9.6048 14.9518 9.6048 14.7449V14.2553C8.40472 14.1655 7.54468 13.5769 7.22332 12.7074ZM8.34623 8.248C8.34623 8.81005 8.73536 9.20893 9.46496 9.39628L9.6048 9.43254V6.94863C8.83872 7.08159 8.34623 7.57716 8.34623 8.248ZM11.8726 11.9829C11.8726 11.3363 11.4774 10.9555 10.5776 10.7259L10.3344 10.6654V13.3609C11.295 13.2823 11.8726 12.7626 11.8726 11.9829Z" fill="#F37800"/>
<path fill-rule="evenodd" clip-rule="evenodd" d="M1.76562 2.1875C0.963086 2.1875 0.3125 2.85556 0.3125 3.67966V16.1997C0.3125 16.5954 0.465596 16.9749 0.73811 17.2548L0.938745 17.4608C1.39542 17.9297 2.13583 17.9297 2.5925 17.4608C2.67086 17.3803 2.79789 17.3803 2.87625 17.4608C3.33292 17.9297 4.07333 17.9297 4.53 17.4608C4.60836 17.3803 4.73539 17.3803 4.81375 17.4608C5.27042 17.9297 6.01083 17.9297 6.4675 17.4608C6.54586 17.3803 6.67289 17.3803 6.75125 17.4608C7.20792 17.9297 7.94833 17.9297 8.40501 17.4608C8.48336 17.3803 8.61039 17.3803 8.68874 17.4608C9.14542 17.9297 9.88583 17.9297 10.3425 17.4608C10.4209 17.3803 10.5479 17.3803 10.6262 17.4608C11.0829 17.9297 11.8233 17.9297 12.28 17.4608C12.3584 17.3803 12.4854 17.3803 12.5637 17.4608C13.0204 17.9297 13.7608 17.9297 14.2175 17.4608C14.2959 17.3803 14.4229 17.3803 14.5012 17.4608C14.9579 17.9297 15.6983 17.9297 16.155 17.4608C16.2334 17.3803 16.3604 17.3803 16.4387 17.4608C16.8954 17.9297 17.6358 17.9297 18.0925 17.4608L18.2369 17.3125C18.8005 17.7981 19.6875 17.393 19.6875 16.6117V3.67966C19.6875 2.85556 19.0369 2.1875 18.2344 2.1875H1.76562ZM1.28125 3.67966C1.28125 3.40496 1.49811 3.18227 1.76562 3.18227H18.2344C18.5019 3.18227 18.7188 3.40496 18.7188 3.67966V16.4328C18.3753 16.202 17.9099 16.2415 17.6081 16.5514L17.4075 16.7574C17.3291 16.8378 17.2021 16.8378 17.1238 16.7574C16.6671 16.2884 15.9267 16.2884 15.47 16.7574C15.3916 16.8378 15.2646 16.8378 15.1863 16.7574C14.7296 16.2884 13.9892 16.2884 13.5325 16.7574C13.4541 16.8378 13.3271 16.8378 13.2488 16.7574C12.7921 16.2884 12.0517 16.2884 11.595 16.7574C11.5166 16.8378 11.3896 16.8378 11.3113 16.7574C10.8546 16.2884 10.1142 16.2884 9.65749 16.7574C9.57914 16.8378 9.45211 16.8378 9.37376 16.7574C8.91708 16.2884 8.17667 16.2884 7.72 16.7574C7.64164 16.8378 7.51461 16.8378 7.43625 16.7574C6.97958 16.2884 6.23917 16.2884 5.7825 16.7574C5.70414 16.8378 5.57711 16.8378 5.49875 16.7574C5.04208 16.2884 4.30167 16.2884 3.845 16.7574C3.76664 16.8378 3.63961 16.8378 3.56125 16.7574C3.10458 16.2884 2.36417 16.2884 1.9075 16.7574C1.82914 16.8378 1.70211 16.8378 1.62375 16.7574L1.42312 16.5514C1.33228 16.4581 1.28125 16.3316 1.28125 16.1997V3.67966Z" fill="#F37800"/>
</svg>
